<svg xmlns="http://www.w3.org/2000/svg" xmlns:xlink="http://www.w3.org/1999/xlink" fill="none" version="1.1" width="16" height="16" viewBox="0 0 16 16"><g><g><g><g></g><g><path d="M8.083824695511627,0.7868295955116272Q7.477568195511627,0.2888889355116272,6.693036095511627,0.28888899551162717L2.888888895511627,0.28888887551162723Q1.8119336355116271,0.28888887551162723,1.0504113255116272,1.0504113255116272Q0.2888889355116272,1.8119338155116274,0.28888887551162723,2.8888890955116273L0.28888887551162723,12.222222895511628Q0.28888887551162723,13.299177895511628,1.0504112855116272,14.060700895511626Q1.8119329255116272,14.822221895511626,2.8888890955116273,14.822221895511626L13.111110895511628,14.822221895511626Q14.188065895511627,14.822221895511626,14.949587895511627,14.060700895511626Q15.711110895511627,13.299179895511628,15.711110895511627,12.222224895511626L15.711110895511627,5.452991995511627Q15.711110895511627,4.376035795511627,14.949587895511627,3.614514195511627Q14.188065895511627,2.8529917955116275,13.111110895511628,2.8529917955116275L9.814901895511627,2.8529917955116275Q9.000739595511627,2.8529917955116275,8.842532195511627,2.054348995511627Q8.690081195511627,1.2847701055116272,8.083824695511627,0.7868295955116272ZM2.888888895511627,1.4888889155116272L6.693035695511627,1.4888889155116272Q7.507198395511627,1.4888889155116272,7.665405795511627,2.2875316955116274Q7.817855395511627,3.057109695511627,8.424112395511628,3.555051195511627Q9.030368395511628,4.052991895511627,9.814901895511627,4.052991895511627L13.111110895511628,4.052991895511627Q13.691008895511628,4.052991895511627,14.101060895511628,4.463042295511627Q14.511111895511627,4.873093695511628,14.511111895511627,5.452991995511627L14.511111895511627,12.222224895511626Q14.511111895511627,12.802120895511628,14.101060895511628,13.212171895511627Q13.691008895511628,13.622222895511626,13.111110895511628,13.622222895511626L2.8888890955116273,13.622222895511626Q2.308990095511627,13.622222895511626,1.8989395955116273,13.212171895511627Q1.4888889155116272,12.802121895511627,1.4888889155116272,12.222222895511628L1.4888889155116272,2.8888890955116273Q1.4888889155116272,2.308989895511627,1.8989395955116273,1.8989393955116272Q2.308990095511627,1.4888889155116272,2.888888895511627,1.4888889155116272Z" fill-rule="evenodd" fill="#1A1A1A" fill-opacity="1"/></g><g><path d="M8.213412511154175,5.333197116851807L8.213512611154176,5.333197116851807L8.213512611154176,10.809762916851806L10.946906311154175,8.506404116851806L10.946970711154176,8.506480716851806Q11.014581411154175,8.449506316851807,11.097633111154174,8.419179416851806Q11.180685711154176,8.388852616851807,11.269101411154175,8.388852616851807Q11.318336711154174,8.388852616851807,11.366626511154175,8.398458016851807Q11.414915811154174,8.408063416851807,11.460404111154176,8.426904916851807Q11.505892511154176,8.445746616851807,11.546830911154174,8.473100616851806Q11.587768811154174,8.500454616851806,11.622584111154175,8.535269716851808Q11.657398911154175,8.570084616851807,11.684752211154175,8.611022716851807Q11.712106511154175,8.651960816851807,11.730948211154175,8.697448716851806Q11.749789911154174,8.742936616851807,11.759396311154175,8.791226616851807Q11.769001711154175,8.839516116851808,11.769001711154175,8.888752416851807Q11.769001711154175,8.999303316851806,11.722386111154174,9.099545016851806Q11.675769611154175,9.199786616851807,11.591232111154174,9.271024716851807L11.591296911154174,9.271101516851807L8.035707211154175,12.267302016851808Q8.002155111154174,12.295575616851806,7.964191211154175,12.317573116851808Q7.926227311154175,12.339571016851806,7.885012911154175,12.354620916851808Q7.843797911154175,12.369670416851807,7.800592211154175,12.377312216851806Q7.757386011154175,12.384954016851808,7.713510311154175,12.384954016851808Q7.6696336111541745,12.384953016851806,7.626427411154175,12.377311216851806Q7.583221711154175,12.369668916851808,7.542007411154175,12.354619016851807Q7.500792711154174,12.339568616851807,7.462829311154175,12.317570216851806Q7.424865911154175,12.295572316851807,7.391314311154175,12.267298716851807L3.8357917111541746,9.271098616851805L3.835856171154175,9.271021816851807Q3.751319945154175,9.199783816851806,3.704705074154175,9.099542616851807Q3.6580902040001746,8.999301916851806,3.6580902040001746,8.888752416851807Q3.6580902040001746,8.839516116851808,3.6676956396541747,8.791226616851807Q3.677301075154175,8.742936616851807,3.6961428191541748,8.697448716851806Q3.7149845581541747,8.651960816851807,3.742338531154175,8.611022716851807Q3.7696925011541746,8.570084616851807,3.8045075111541746,8.535269716851808Q3.8393225111541747,8.500454616851806,3.880260621154175,8.473100616851806Q3.921198721154175,8.445746616851807,3.9666867211541748,8.426904916851807Q4.0121747211541745,8.408063416851807,4.0604645311541745,8.398458016851807Q4.1087543411541745,8.388852616851807,4.157990221154175,8.388852616851807Q4.2464070911541745,8.388852616851807,4.329459901154175,8.419180416851807Q4.412512781154175,8.449507916851807,4.480124351154175,8.506483516851807L4.480188731154175,8.506407216851807L7.213512611154175,10.809750116851806L7.213512611154175,5.333197116851807L7.2136125111541745,5.333197116851807Q7.2136125111541745,5.283961236851806,7.223217711154175,5.235671426851806Q7.232823111154175,5.187381626851806,7.251664911154174,5.1418936268518065Q7.270506611154175,5.096405626851807,7.297860611154174,5.055467516851807Q7.325214611154175,5.014529406851807,7.360029711154175,4.979714406851807Q7.394844511154175,4.944899406851807,7.435782711154175,4.917545430851806Q7.476720611154175,4.890191457851807,7.522208911154175,4.871349714851807Q7.567696811154175,4.8525079748518065,7.615986611154175,4.842902538351806Q7.664276811154175,4.833297103643806,7.713512611154175,4.833297103643806Q7.762748511154175,4.833297103643806,7.811038211154175,4.8429025411518065Q7.859328011154175,4.852507978851807,7.904815411154175,4.871349721851806Q7.950303811154175,4.890191465851807,7.991241711154175,4.917545437851807Q8.032179611154174,4.944899416851807,8.066994911154175,4.979714426851807Q8.101810211154174,5.014529426851807,8.129164011154174,5.055467516851807Q8.156517711154175,5.096405626851807,8.175359511154173,5.1418936268518065Q8.194201211154175,5.187381626851806,8.203806611154175,5.235671426851806Q8.213412011154174,5.283961236851806,8.213412511154175,5.333197116851807Z" fill-rule="evenodd" fill="#004CA2" fill-opacity="1" style="mix-blend-mode:passthrough"/></g></g></g></g></svg>