<svg xmlns="http://www.w3.org/2000/svg" xmlns:xlink="http://www.w3.org/1999/xlink" fill="none" version="1.1" width="40" height="40" viewBox="0 0 40 40"><g><g><ellipse cx="20.000001907348633" cy="20" rx="20.000001907348633" ry="20" fill="#004CA2" fill-opacity="1" style="mix-blend-mode:passthrough"/></g><g><path d="M22.06237208959961,11.666666984558105C22.67289608959961,11.666660677592105,23.25188208959961,11.930304884558105,23.642731089599607,12.386291984558106L25.31180208959961,14.333333484558105L27.27615908959961,14.333333484558105C28.37981408959961,14.333333484558105,29.280481089599608,15.178333484558106,29.33105308959961,16.239166784558105L29.33330308959961,16.333333484558104L29.33330308959961,25.666665984558108C29.33330308959961,26.771249984558104,28.41227908959961,27.666666984558105,27.27615908959961,27.666666984558105L13.10471578959961,27.666666984558105C11.968594369599609,27.666666984558105,11.04757308959961,26.771249984558104,11.04757308959961,25.666665984558108L11.04757308959961,16.333333484558104C11.04757308959961,15.228750184558105,11.968594369599609,14.333333484558105,13.10471578959961,14.333333484558105L15.06860158959961,14.333333484558105L16.73814438959961,12.386291984558106C17.10351038959961,11.960031654558106,17.63459538959961,11.700495313558106,18.204436789599608,11.669729525258106L18.31850198959961,11.666666984558105L22.06237208959961,11.666666984558105ZM22.06237208959961,13.000000284558105L18.31850198959961,13.000000284558105C18.11499598959961,12.999999884558106,17.92200418959961,13.087881084558106,17.79172278959961,13.239875484558105L15.71160838959961,15.666666984558105L13.10471578959961,15.666666984558105C12.726008789599609,15.666666984558105,12.41900158959961,15.965146084558105,12.41900158959961,16.333333484558104L12.41900158959961,25.666665984558108C12.41900158959961,26.034853984558104,12.726008789599609,26.333332984558105,13.10471578959961,26.333332984558105L27.27615908959961,26.333332984558105C27.65486508959961,26.333332984558105,27.961874089599608,26.034853984558104,27.961874089599608,25.666665984558108L27.961874089599608,16.333333484558104C27.961874089599608,15.965146084558105,27.65486508959961,15.666666984558105,27.27615908959961,15.666666984558105L24.669267089599607,15.666666984558105L22.58915108959961,13.239875484558105C22.458870089599607,13.087881084558106,22.26587808959961,12.999999884558106,22.06237208959961,13.000000284558105ZM20.190437289599608,17.222229484558106C22.08399408959961,17.222229484558106,23.61900808959961,18.714603884558105,23.61900808959961,20.555561984558103C23.61900808959961,22.396498984558107,22.08399408959961,23.888896984558105,20.190437289599608,23.888896984558105C18.296879789599608,23.888896984558105,16.76186508959961,22.396500984558106,16.76186508959961,20.555562984558108C16.76186508959961,18.714604884558106,18.296879789599608,17.222229984558105,20.190437289599608,17.222229484558106ZM20.190437289599608,18.555562484558106C19.05429358959961,18.555562484558106,18.13329408959961,19.450978784558107,18.13329408959961,20.555561984558103C18.13329408959961,21.660124784558107,19.05429358959961,22.555561984558103,20.190437289599608,22.555561984558103C21.32658008959961,22.555561984558103,22.24757908959961,21.660124784558107,22.24757908959961,20.555561984558103C22.24757908959961,19.450978784558107,21.32658008959961,18.555562484558106,20.190437289599608,18.555562484558106Z" fill="#FFFFFF" fill-opacity="1" style="mix-blend-mode:passthrough"/></g></g></svg>