<?xml version="1.0" standalone="no"?><!DOCTYPE svg PUBLIC "-//W3C//DTD SVG 1.1//EN" "http://www.w3.org/Graphics/SVG/1.1/DTD/svg11.dtd"><svg t="1769698680018" class="icon" viewBox="0 0 1024 1024" version="1.1" xmlns="http://www.w3.org/2000/svg" p-id="14927" xmlns:xlink="http://www.w3.org/1999/xlink" width="32" height="32"><path d="M308.5 308.2v-244H138.8c-41.2 0-74.6 33.4-74.6 74.6v169.4h244.3z m0 406.2H64.2v170.2c0 41.2 33.4 74.6 74.6 74.6h169.7V714.4z m406.5 0v244.8h169.8c41.2 0 74.6-33.4 74.6-74.6V714.4H715z m0-406.2h244.4V138.8c0-41.2-33.4-74.6-74.6-74.6H715v244z m-325.1 81.4h243.8v243.5H389.9V389.6z m-325.7 0h244.3v243.5H64.2V389.6z m650.8 0h244.4v243.5H715V389.6zM389.9 64.2h243.8v244H389.9v-244z m0 650.2h243.8v244.8H389.9V714.4z" fill="#2c2c2c" p-id="14928"></path></svg>