<svg xmlns="http://www.w3.org/2000/svg" xmlns:xlink="http://www.w3.org/1999/xlink" fill="none" version="1.1" width="16" height="16" viewBox="0 0 16 16"><g><g><g><g></g><g><g><path d="M4.9999938,0C4.6686893,0,4.4001141,0.26857543,4.4001141,0.59988004L4.400074,1.5998535L3,1.5998535C1.3431456,1.5998535,0,2.853456,0,4.3998537L0,12.799853C0,14.346251,1.3431456,15.599853,3,15.599853L13,15.599853C14.656855,15.599853,16,14.346251,16,12.799853L16,4.3998537C16,2.853456,14.656855,1.5998535,13,1.5998535L11.599954,1.5998535L11.599994,0.59988004C11.599874,0.26857543,11.331299,0,10.999994,0C10.66869,0,10.400114,0.26857543,10.400114,0.59988004L10.400074,1.5998535L5.5999537,1.5998535L5.5999937,0.59988004C5.599874,0.26857543,5.3312984,0,4.9999938,0ZM3,2.7198534L4.4000292,2.7198534L4.3999939,3.59988C4.4001141,3.9311845,4.6686893,4.19976,4.9999938,4.19976C5.3312984,4.19976,5.599874,3.9311845,5.599874,3.59988L5.5999093,2.7198534L10.400029,2.7198534L10.399994,3.59988C10.400114,3.9311845,10.66869,4.19976,10.999994,4.19976C11.331299,4.19976,11.599874,3.9311845,11.599874,3.59988L11.59991,2.7198534L13,2.7198534Q13.745584,2.7198534,14.272792,3.2119141Q14.8,3.7039747,14.8,4.3998537L14.8,5.4998536L1.2,5.4998536L1.2,4.3998537Q1.2,3.703975,1.7272078,3.2119141Q2.2544158,2.7198534,3,2.7198534ZM1.2,6.6998534L1.2,12.799853Q1.2,13.49573,1.7272077,13.987792Q2.2544167,14.479853,3,14.479853L13,14.479853Q13.745584,14.479853,14.272792,13.987792Q14.8,13.49573,14.8,12.799853L14.8,6.6998534L1.2,6.6998534Z" fill-rule="evenodd" fill="#1A1A1A" fill-opacity="1"/></g></g></g><g><path d="M12.59966274375,8.59988004C12.59966274375,8.77122849,12.52638814375,8.93439841,12.39832114375,9.0482361L7.89840054375,13.048326C7.66095924375,13.2593846,7.30015614375,13.2487822,7.07551814375,13.0241442L4.57551831375,10.5241442C4.46310383075,10.4115598,4.39990234375,10.2589781,4.39990234375,10.09988C4.39990234375,9.7685754,4.66847777375,9.5,4.99978238375,9.5C5.15888047375,9.5,5.31146228375,9.5632014,5.42396164375,9.6757009L7.52400564375,11.775575400000001L11.60116434375,8.15143442C11.711052443749999,8.053916335,11.85286334375,8,11.999782543750001,8C12.33108714375,8,12.59966274375,8.26857543,12.59966274375,8.59988004Z" fill-rule="evenodd" fill="#004CA2" fill-opacity="1" style="mix-blend-mode:passthrough"/></g></g></g></svg>